<?xml version="1.0" standalone="no"?>
<!DOCTYPE svg PUBLIC "-//W3C//DTD SVG 20010904//EN"
 "http://www.w3.org/TR/2001/REC-SVG-20010904/DTD/svg10.dtd">
<svg version="1.0" xmlns="http://www.w3.org/2000/svg"
 width="160.000000pt" height="160.000000pt" viewBox="0 0 160.000000 160.000000"
 preserveAspectRatio="xMidYMid meet">
<metadata>
Created by potrace 1.11, written by Peter Selinger 2001-2013
</metadata>
<g transform="translate(0.000000,160.000000) scale(0.100000,-0.100000)"
fill="#000000" stroke="none">
<path d="M635 1386 c-90 -29 -136 -53 -210 -109 -108 -82 -199 -228 -225 -364
-17 -86 -8 -242 18 -323 60 -185 207 -336 404 -418 84 -35 258 -43 358 -17
164 42 331 169 389 296 30 65 50 159 34 159 -4 0 -21 -28 -37 -62 -34 -73 -45
-59 -22 28 21 82 30 184 18 214 -11 28 -10 30 -38 -60 -24 -78 -62 -150 -78
-150 -8 0 -17 -9 -21 -19 -9 -30 -108 -126 -160 -156 -87 -51 -143 -67 -237
-66 -82 0 -94 3 -180 44 -69 32 -105 57 -140 94 -83 89 -128 207 -128 331 0
153 97 328 220 399 105 61 263 75 375 33 84 -32 160 -85 207 -143 49 -63 66
-94 95 -182 20 -62 22 -65 17 -25 -9 67 -52 165 -95 220 -33 41 -144 130 -164
130 -3 0 -37 16 -76 35 -63 31 -80 35 -148 35 -43 0 -101 -7 -130 -16 -69 -20
-90 -12 -26 10 28 9 102 21 165 26 102 7 122 6 175 -12 138 -45 250 -137 321
-265 20 -35 38 -62 41 -59 5 4 -26 86 -55 145 -24 50 -158 169 -227 202 -146
70 -313 87 -440 45z"/>
</g>
</svg>
